<?xml version="1.0" encoding="UTF-8" standalone="no"?>
<!-- Created with Inkscape (http://www.inkscape.org/) -->

<svg
   xmlns:dc="http://purl.org/dc/elements/1.1/"
   xmlns:cc="http://creativecommons.org/ns#"
   xmlns:rdf="http://www.w3.org/1999/02/22-rdf-syntax-ns#"
   xmlns:svg="http://www.w3.org/2000/svg"
   xmlns="http://www.w3.org/2000/svg"
   xmlns:xlink="http://www.w3.org/1999/xlink"
   xmlns:sodipodi="http://sodipodi.sourceforge.net/DTD/sodipodi-0.dtd"
   xmlns:inkscape="http://www.inkscape.org/namespaces/inkscape"
   width="512"
   height="512"
   viewBox="0 0 512 512"
   version="1.1"
   id="svg8"
   inkscape:version="0.92.3 (2405546, 2018-03-11)"
   sodipodi:docname="goeland_io.svg">
  <title
     id="title3171">goeland.io</title>
  <defs
     id="defs2">
    <linearGradient
       id="linearGradient3041"
       inkscape:collect="always">
      <stop
         id="stop3037"
         offset="0"
         style="stop-color:#9ea4e1;stop-opacity:1" />
      <stop
         id="stop3039"
         offset="1"
         style="stop-color:#0000ff;stop-opacity:0;" />
    </linearGradient>
    <linearGradient
       inkscape:collect="always"
       id="linearGradient2990">
      <stop
         style="stop-color:#0000ff;stop-opacity:1;"
         offset="0"
         id="stop2986" />
      <stop
         style="stop-color:#0000ff;stop-opacity:0;"
         offset="1"
         id="stop2988" />
    </linearGradient>
    <linearGradient
       inkscape:collect="always"
       id="linearGradient2980">
      <stop
         style="stop-color:#ffff00;stop-opacity:1;"
         offset="0"
         id="stop2976" />
      <stop
         style="stop-color:#ffff00;stop-opacity:0;"
         offset="1"
         id="stop2978" />
    </linearGradient>
    <linearGradient
       id="linearGradient5572">
      <stop
         offset="0"
         style="stop-color:#000000"
         id="stop5573" />
      <stop
         offset="1"
         style="stop-color:#727272"
         id="stop5574" />
    </linearGradient>
    <linearGradient
       id="linearGradient4936">
      <stop
         offset="0"
         style="stop-color:#d36100"
         id="stop4937" />
      <stop
         offset="1"
         style="stop-color:#ff7400"
         id="stop4938" />
    </linearGradient>
    <linearGradient
       inkscape:collect="always"
       x1="299.67"
       y1="64.242"
       gradientTransform="scale(0.5742,1.7416)"
       x2="302.91"
       gradientUnits="userSpaceOnUse"
       xlink:href="#linearGradient4936"
       y2="66.33"
       id="linearGradient4939" />
    <linearGradient
       inkscape:collect="always"
       x1="176.18"
       y1="89.561"
       gradientTransform="scale(0.798,1.2531)"
       x2="182.01"
       gradientUnits="userSpaceOnUse"
       xlink:href="#linearGradient4936"
       y2="97.719"
       id="linearGradient4944" />
    <linearGradient
       inkscape:collect="always"
       x1="133.96"
       y1="123.34"
       gradientTransform="scale(1.0698,0.93474)"
       x2="138.7"
       gradientUnits="userSpaceOnUse"
       xlink:href="#linearGradient4936"
       y2="132.49"
       id="linearGradient4949" />
    <linearGradient
       inkscape:collect="always"
       x1="100.14"
       y1="91.971"
       gradientTransform="scale(1.3707,0.72957)"
       x2="79.627"
       gradientUnits="userSpaceOnUse"
       xlink:href="#linearGradient5572"
       y2="111.94"
       id="linearGradient5575" />
    <linearGradient
       inkscape:collect="always"
       x1="205.34"
       y1="150.52"
       gradientTransform="scale(1.3583,0.7362)"
       x2="173.22"
       gradientUnits="userSpaceOnUse"
       xlink:href="#linearGradient5572"
       y2="202.44"
       id="linearGradient5580" />
    <linearGradient
       inkscape:collect="always"
       x1="149.94"
       y1="125.36"
       gradientTransform="scale(1.1368,0.8797)"
       x2="140.13"
       gradientUnits="userSpaceOnUse"
       xlink:href="#linearGradient5572"
       y2="111.17"
       id="linearGradient5585" />
    <linearGradient
       inkscape:collect="always"
       x1="119.99"
       y1="124.32"
       gradientTransform="scale(1.0504,0.95206)"
       x2="155.27"
       gradientUnits="userSpaceOnUse"
       y2="85.55"
       id="linearGradient5601">
      <stop
         offset="0"
         style="stop-color:#c8c8c8"
         id="stop5599" />
      <stop
         offset="1"
         style="stop-color:#ffffff"
         id="stop5600" />
    </linearGradient>
    <linearGradient
       inkscape:collect="always"
       x1="131.36"
       y1="136.03"
       gradientTransform="scale(1.0775,0.92808)"
       x2="136.5"
       gradientUnits="userSpaceOnUse"
       y2="127.09"
       id="linearGradient5606">
      <stop
         offset="0"
         style="stop-color:#000000"
         id="stop5604" />
      <stop
         offset="1"
         style="stop-color:#e56900"
         id="stop5605" />
    </linearGradient>
    <radialGradient
       inkscape:collect="always"
       xlink:href="#linearGradient2980"
       id="radialGradient2982"
       cx="256"
       cy="417.53329"
       fx="256"
       fy="417.53329"
       r="250"
       gradientUnits="userSpaceOnUse" />
    <linearGradient
       inkscape:collect="always"
       xlink:href="#linearGradient2990"
       id="linearGradient2992"
       x1="271.67346"
       y1="666.54529"
       x2="268.60025"
       y2="355.53445"
       gradientUnits="userSpaceOnUse"
       gradientTransform="translate(0,-161.5333)" />
    <linearGradient
       gradientTransform="matrix(-1,0,0,-1.06,511.99999,713.94531)"
       inkscape:collect="always"
       xlink:href="#linearGradient3041"
       id="linearGradient2992-7"
       x1="271.67346"
       y1="666.54529"
       x2="268.60025"
       y2="355.53445"
       gradientUnits="userSpaceOnUse" />
    <filter
       inkscape:collect="always"
       style="color-interpolation-filters:sRGB"
       id="filter3132"
       x="-0.0035585786"
       width="1.0071172"
       y="-0.0073716092"
       height="1.0147432">
      <feGaussianBlur
         inkscape:collect="always"
         stdDeviation="0.74023242"
         id="feGaussianBlur3134" />
    </filter>
  </defs>
  <sodipodi:namedview
     id="base"
     pagecolor="#ffffff"
     bordercolor="#666666"
     borderopacity="1.0"
     inkscape:pageopacity="0.0"
     inkscape:pageshadow="2"
     inkscape:zoom="1.6269531"
     inkscape:cx="256"
     inkscape:cy="256"
     inkscape:document-units="px"
     inkscape:current-layer="layer1"
     showgrid="false"
     units="px"
     inkscape:window-width="1680"
     inkscape:window-height="1022"
     inkscape:window-x="1680"
     inkscape:window-y="0"
     inkscape:window-maximized="1" />
  <metadata
     id="metadata5">
    <rdf:RDF>
      <cc:Work
         rdf:about="">
        <dc:format>image/svg+xml</dc:format>
        <dc:type
           rdf:resource="http://purl.org/dc/dcmitype/StillImage" />
        <dc:title>goeland.io</dc:title>
      </cc:Work>
    </rdf:RDF>
  </metadata>
  <g
     inkscape:label="goeland"
     inkscape:groupmode="layer"
     id="layer1"
     transform="translate(0,-161.5333)">
    <path
       style="display:inline;opacity:1;fill:url(#linearGradient2992-7);fill-opacity:1;stroke:none;stroke-width:3.89126182;stroke-linejoin:round;stroke-miterlimit:4;stroke-dasharray:none;stroke-opacity:1"
       d="m 50,1.1347656 c -27.7,0 -50,22.3000004 -50,50.0000004 V 265 H 512 V 51.134766 c 0,-27.7 -22.3,-50.0000004 -50,-50.0000004 z"
       transform="translate(0,161.5333)"
       id="rect2984-5"
       inkscape:connector-curvature="0"
       inkscape:label="rect_top_sky"
       sodipodi:insensitive="true" />
    <path
       style="display:inline;opacity:1;fill:#ffb300;fill-opacity:1;stroke:#fd514c;stroke-width:2.26771665;stroke-linejoin:round;stroke-miterlimit:4;stroke-dasharray:none;stroke-opacity:1;filter:url(#filter3132)"
       d="m 256,183.63329 a 250,250 0 0 0 -249.5507812,241 H 505.68164 A 250,250 0 0 0 256,183.63329 Z"
       id="path1505-1"
       inkscape:connector-curvature="0"
       inkscape:label="sun_top" />
    <path
       style="display:inline;opacity:1;fill:url(#linearGradient2992);fill-opacity:1;stroke:none;stroke-width:3.77952766;stroke-linejoin:round;stroke-miterlimit:4;stroke-dasharray:none;stroke-opacity:1"
       d="m 0,262 v 198.86523 c 0,27.7 22.3,50 50,50 h 412 c 27.7,0 50,-22.3 50,-50 V 262 Z"
       id="rect2984"
       inkscape:connector-curvature="0"
       transform="translate(0,161.5333)" />
    <circle
       style="display:inline;opacity:1;fill:url(#radialGradient2982);fill-opacity:1;stroke:none;stroke-width:3.77952766;stroke-linejoin:round;stroke-miterlimit:4;stroke-dasharray:none;stroke-opacity:1"
       id="path1505"
       cx="256"
       cy="417.53329"
       r="250"
       inkscape:label="sun_hallo"
       sodipodi:insensitive="true" />
    <g
       transform="matrix(-1.5157576,0,0,1.5157576,483.69791,260.93628)"
       id="g5607"
       style="display:inline;stroke:#000000;stroke-width:2.4934907;stroke-miterlimit:4;stroke-dasharray:none;stroke-opacity:1">
      <path
         d="m 23.438,58.812 c -6.056,0.208 -11.229,-0.15 -17.219,0.844 -0.5792,1.462 2.0555,1.683 4.562,2.125 -1.1121,1.584 0.465,2.564 1.969,2.469 7.534,1.005 15.419,0.597 23,0.531 21.5,-0.417 42.853,-1.766 64.34,-2.437 1.07,0.336 3.91,0.259 4.57,0.687 9.42,2.872 17.74,8.546 25.81,14.031 6.15,4.221 11.97,9.292 18.06,13.594 2.47,3.156 -3.75,4.194 -5.72,3.063 -8.45,-3.528 -16.12,-8.787 -23.06,-14.719 -0.54,2.735 -0.13,3.569 -0.03,4.938 1.44,7.599 5.37,14.07 9.56,20.472 2.74,3.82 5.42,7.03 9.47,9.56 1.61,0.74 3.45,0.96 5.19,1.12 -0.05,0.27 -0.44,1.78 -0.5,2.05 -0.04,0.55 -1.37,0.71 -1.75,1.05 -1.13,0.94 -1.77,2.33 -2.8,3.39 -0.43,0.44 -0.08,0.2 0.14,0.86 0.29,0.85 0.04,1.02 0.97,1.31 0.41,0.14 1.22,-0.17 1.62,-0.28 0.17,0.5 0.09,1.35 0.6,1.53 1.21,0.53 1.78,0.47 3.03,0.12 0.65,-0.19 1.29,0.23 1.28,-0.5 0,-0.54 0.2,-1.14 0.63,-1.53 1.24,-1.51 2.38,-3.13 3.93,-4.31 -0.2,-0.3 0.58,-0.98 1.22,-1.37 0.08,-0.1 1.3,-0.77 1.35,-0.88 0.64,0.45 1.78,0.67 2.53,0.88 4.01,3.27 7.55,6 12.72,6.93 1.13,-1.75 -0.78,-2.4 -1.53,-4.12 -1.6,-2.22 1.86,-4.56 3.31,-5.63 0.13,0.82 0.37,1.69 1.19,2 0.55,0.18 0.52,0.16 0.96,0.69 0.83,-1.27 1.16,-2.8 1.38,-4.28 0.01,-0.07 -0.01,-0.15 0,-0.22 0.82,-0.73 0.73,-1.84 1.47,-2.66 0.13,-0.07 1.57,-1.23 1.59,-1.37 2.45,-2.88 4.09,-5.06 5,-8.781 0.6,-2.042 3.79,-2.603 5.63,-3.157 3.98,-0.395 8.52,-0.369 12.5,-0.156 -0.69,0.484 1.26,1.745 2.08,1.511 9.81,1.569 18.57,5.633 27.35,10.143 13.27,6.88 25.25,14.93 37.5,23.44 2.78,1.84 4.95,4.13 8,5.5 1.06,0.8 2.2,-0.07 2.35,-1.16 5.01,4.04 10.05,8.53 15.84,11.38 4.47,-0.45 -2.87,-3.13 -3.91,-4.56 -12.11,-10.38 -24.2,-20.86 -36.62,-30.85 -12.04,-9.34 -26.59,-15.347 -41.75,-17.029 -9.17,-1.137 -18.43,-1.083 -27.63,-0.375 -7.51,-5.525 -16.56,-10.076 -26.15,-8.844 -4.89,-1.529 -8.71,-5.38 -12.85,-8.281 -7.41,-5.619 -14.3,-11.982 -22.15,-17 -4.02,-1.25 -8.42,-0.558 -12.59,-0.937 -28.811,-0.65 -57.629,-1.013 -86.442,-0.782 z m 127.68,56.348 c 0,0 0.14,2.99 -1.9,3.4 -2.04,0.41 -4.07,1.24 -4.34,1.78 -0.28,0.55 1.36,-4.38 1.5,-5.06 z"
         style="fill:#ffffff;fill-rule:evenodd;stroke:#000000;stroke-width:2.4934907;stroke-miterlimit:4;stroke-dasharray:none;stroke-opacity:1"
         sodipodi:nodetypes="ccccccccccccccccccccccccccccccccccccccccccccccccccccccccccccc"
         id="path2405"
         inkscape:connector-curvature="0" />
      <path
         d="m 145.02,94.548 c -8.12,-2.763 -24.36,-13.815 -25.45,-15.406 -0.84,4.354 3.85,16.327 7.2,21.188 2.76,4.35 9.55,13.64 12.98,14.48 3.43,0.84 9.38,0.76 11.14,0.42 1.75,-0.33 5.19,2.18 7.36,4.1 2.18,1.93 8.21,5.36 10.81,5.28 1.17,0.25 -2.1,-5.03 -2.01,-5.86 -0.26,-2.6 2.01,-3.27 2.59,-4.36 -3.77,0.92 -5.36,0.76 -10.21,1.09 -4.19,0.17 -10.89,-1.59 -14.49,-9.38 -0.59,-4.02 -1.26,-9.542 0.08,-11.552 z"
         style="fill:url(#linearGradient5601);fill-rule:evenodd;stroke:#000000;stroke-width:2.4934907;stroke-miterlimit:4;stroke-dasharray:none;stroke-opacity:1"
         sodipodi:nodetypes="cccccccccccc"
         id="path5586"
         inkscape:connector-curvature="0" />
      <path
         d="m 176.84,109.37 c -8.71,3.26 -11.8,-2.68 -14.48,-5.02 5.36,6.61 2.26,10.21 -1.43,9.12 -7.7,-1.92 -14.9,-17.331 -5.02,-23.192 0.42,-1.256 -5.86,1.005 -7.54,-0.335 1.68,2.931 0.42,4.773 -2.76,4.689 -2.26,-1.005 -1.59,10.218 -0.42,11.808 1.17,1.59 4.52,8.71 12.23,8.79 7.7,0.08 18.17,-1.34 19.42,-5.86 z"
         style="fill:url(#linearGradient5585);fill-rule:evenodd;stroke:#000000;stroke-width:2.4934907;stroke-miterlimit:4;stroke-dasharray:none;stroke-opacity:1"
         sodipodi:nodetypes="ccccccccc"
         id="path5581"
         inkscape:connector-curvature="0" />
      <path
         d="m 201.12,96.977 c 0,0 7.88,0 11.73,1.004 3.85,1.005 26.96,7.699 32.32,10.549 5.36,2.85 25.12,17.25 30.81,22.61 5.7,5.36 17.25,14.07 17.75,15.24 0.51,1.17 -1.34,1 -2.34,0.17 -1.01,-0.84 -14.07,-10.89 -14.07,-10.89 0,0 0.84,2.18 0,2.18 -0.84,0 -21.43,-12.9 -23.78,-14.57 -3.68,-3.85 -23.28,-14.57 -24.78,-15.24 -1.51,-0.67 -21.77,-10.049 -24.29,-9.881 -2.51,0.167 -3.35,-1.172 -3.35,-1.172 z"
         style="fill:url(#linearGradient5580);fill-rule:evenodd;stroke:#000000;stroke-width:2.4934907;stroke-miterlimit:4;stroke-dasharray:none;stroke-opacity:1"
         sodipodi:nodetypes="cccccccccccc"
         id="path5576"
         inkscape:connector-curvature="0" />
      <path
         d="m 102.32,62.479 c 0,0 14.91,-0.837 15.74,-0.502 0.84,0.334 35,24.282 36.01,24.784 1,0.503 3.51,3.182 1.34,3.182 -2.18,0 -4.36,1.507 -7.2,0 -2.85,-1.507 -27.3,-19.593 -30.31,-20.598 -3.02,-1.005 -13.57,-6.866 -15.58,-6.866 z"
         style="fill:url(#linearGradient5575);fill-rule:evenodd;stroke:#000000;stroke-width:2.4934907;stroke-miterlimit:4;stroke-dasharray:none;stroke-opacity:1"
         id="path4950"
         inkscape:connector-curvature="0" />
      <path
         d="m 99.938,61.656 c -1.87,1.793 2.922,1.319 3.992,2.02 9.42,2.871 17.72,8.434 25.79,13.919 6.15,4.221 11.97,8.884 18.06,13.186 2.47,3.156 -2.51,3.616 -4.48,2.485 -8.46,-3.527 -16.12,-8.782 -23.06,-14.714 -2.3,-1.21 -1.34,3.331 -1.24,4.699 1.44,7.6 5.35,14.468 9.55,20.869 2.73,3.82 5.53,7.86 9.58,10.39 3.62,1.66 7.7,1.56 11.56,1.1 2.59,-0.35 4.05,2.12 6.28,2.73 4.01,3.28 8.54,6.28 13.71,7.21 1.14,-1.75 -1.06,-4.06 -1.82,-5.78 -1.63,-2.28 1.46,-3.24 2.87,-4.34 5.68,-3.72 10.4,-9.22 12.05,-15.913 0.6,-2.041 3.77,-1.35 5.61,-1.903 12.96,-1.289 26.04,0.965 38.42,4.726 10.72,3.43 21.76,7.26 30.43,14.56 1.57,0.6 2.6,1.91 4.94,3.01 -1.12,-1.4 -3.65,-3.24 -5.31,-4.84 -9.65,-7.58 -21.8,-11.7 -33.53,-15.04 -12.06,-3.236 -24.74,-5.16 -37.21,-3.43 -2.07,0.348 -4.91,0.273 -4.69,3.177 -1.69,6.363 -6.37,11.433 -11.81,14.903 -1.87,1.09 -4.59,2.58 -3.1,5.2 0.61,1.44 3.42,5.18 0.19,3.43 -3.84,-1.29 -7.14,-3.67 -10.28,-6.16 -2.49,-0.97 -4.57,-3.51 -7.61,-2.72 -3.69,0.46 -7.8,0.48 -11.01,-1.63 -4.92,-3.9 -8.36,-9.31 -11.54,-14.649 -2.9,-5.323 -5.66,-11.004 -6.12,-17.139 -0.15,-2.025 2.24,1.374 3.28,1.741 6.24,4.773 12.9,9.195 20.28,11.997 2.3,0.758 6.92,0.424 5.85,-3.113 -0.54,-2.319 -3.11,-3.021 -4.7,-4.494 -11.09,-8.219 -22.12,-16.797 -34.74,-22.568 -3.25,-1.396 -6.65,-2.625 -10.192,-2.919 z"
         style="fill:#000000;fill-rule:evenodd;stroke:#000000;stroke-width:2.4934907;stroke-miterlimit:4;stroke-dasharray:none;stroke-opacity:1"
         sodipodi:nodetypes="ccccccccccccccccccccccccccccccccccccc"
         id="path1091"
         inkscape:connector-curvature="0" />
      <path
         d="m 23.906,58.375 c -6.056,0.208 -12.197,-0.15 -18.187,0.844 -1.4773,3.728 12.295,3.047 14.747,3.534 1.87,0.772 7.86,-0.571 3.19,-1.161 -3.117,-0.114 -14.94,-0.408 -16.281,-1.404 14.03,-0.92 28.114,-0.546 42.168,-0.62 23.976,0.21 47.967,0.286 71.927,1.276 6.29,3.335 11.46,8.438 17.12,12.702 5.78,4.432 11.28,9.41 17.8,12.739 4.46,0.511 9.51,-0.171 13.98,1.72 4.98,1.572 9.18,4.874 13.6,7.433 19.81,-1.638 40.84,0.024 58.33,10.282 12.33,7.1 22.52,17.16 33.47,26.1 5.6,4.74 11.16,9.52 16.7,14.34 -7.62,-4.72 -14.3,-10.8 -21.16,-16.54 -2.54,1.26 4.13,4.46 5.48,6.29 5.52,4.31 10.73,9.27 17.05,12.38 4.47,-0.45 -2.71,-4.4 -3.74,-5.83 -12.12,-10.38 -24.2,-20.86 -36.62,-30.84 -12.04,-9.35 -26.59,-15.341 -41.75,-17.023 -9.16,-1.137 -18.44,-1.086 -27.64,-0.378 -7.51,-5.525 -16.56,-10.077 -26.15,-8.844 -4.89,-1.529 -8.71,-5.372 -12.84,-8.273 -7.42,-5.619 -14.3,-11.979 -22.15,-16.997 -4.02,-1.249 -8.43,-0.562 -12.61,-0.941 -28.801,-0.65 -57.62,-1.02 -86.434,-0.789 z"
         style="fill:#000000;fill-rule:evenodd;stroke:#000000;stroke-width:2.4934907;stroke-miterlimit:4;stroke-dasharray:none;stroke-opacity:1"
         sodipodi:nodetypes="cccccccccccccccccccccccccc"
         id="path1088"
         inkscape:connector-curvature="0" />
      <path
         d="m 9.875,61.312 c -2.2692,1.774 1.56,3.46 3.215,3.355 7.534,1.005 15.165,0.722 22.746,0.656 24.054,-0.467 48.06,-2.251 72.114,-2.761 3.5,0.053 7.09,-0.246 10.52,0.563 11.59,8.253 23.71,15.757 35.11,24.279 1.16,0.687 1.98,1.663 1.67,2.911 1.89,0.867 1.7,-1.437 0.78,-2.436 -4.22,-3.703 -9.03,-6.68 -13.61,-9.918 -7.86,-5.376 -15.82,-10.629 -23.65,-16.054 -3.67,-0.868 -7.5,-0.539 -11.25,-0.59 -26.463,0.57 -52.876,2.702 -79.351,2.837 C 22.724,64.062 17.197,64.243 11.843,63.106 9.8806,63.075 11.052,61.761 9.875,61.312 Z"
         style="fill:#000000;fill-rule:evenodd;stroke:#000000;stroke-width:2.4934907;stroke-miterlimit:4;stroke-dasharray:none;stroke-opacity:1"
         id="path1089"
         inkscape:connector-curvature="0" />
      <path
         d="m 200.26,96.779 c -1.34,0.373 -0.04,0.795 1.14,1.368 9.81,1.568 19.05,6.043 27.83,10.553 13.27,6.88 25.53,15.47 37.79,23.98 2.77,1.84 5.47,3.87 8.52,5.23 1.35,1.03 3.38,-0.19 2.46,-1.85 -0.6,-1.07 -1.64,0.18 -1.06,0.97 -1.75,-0.42 -3.24,-1.53 -4.77,-2.43 -7.1,-4.65 -13.95,-9.68 -21.05,-14.32 -11.29,-7.41 -22.99,-14.42 -35.68,-19.16 -4.8,-1.751 -10.1,-3.717 -15.18,-4.341 z"
         style="fill:#000000;fill-rule:evenodd;stroke:#000000;stroke-width:2.4934907;stroke-miterlimit:4;stroke-dasharray:none;stroke-opacity:1"
         sodipodi:nodetypes="ccccccccccc"
         id="path1090"
         inkscape:connector-curvature="0" />
      <path
         d="m 144.98,105.17 c -0.44,0.1 0.46,1.79 0.64,2.64 1.3,2.79 3.27,4.93 6.09,6.17 3.38,1.54 7.09,2.04 10.76,1.89 3.43,-0.14 6.84,-0.72 10.13,-1.67 0.56,-0.24 0.31,-1.25 -0.3,-1.18 -0.71,0.15 -1.4,0.38 -2.11,0.52 -4.54,1.04 -9.28,1.51 -13.89,0.73 -2.88,-0.51 -5.83,-1.42 -7.89,-3.55 -1.29,-1.31 -3.18,-5.62 -3.43,-5.55 z"
         style="fill:#000000;fill-rule:evenodd;stroke:#000000;stroke-width:2.4934907;stroke-miterlimit:4;stroke-dasharray:none;stroke-opacity:1"
         sodipodi:nodetypes="cccccccccc"
         id="path1092"
         inkscape:connector-curvature="0" />
      <path
         d="m 160.59,100.34 c -0.53,-0.02 0.03,1.01 0.35,1.41 1.21,2.5 1.98,4.51 4,6.43 1.79,1.67 4.04,2.95 6.52,3.12 2.08,0.17 3.66,-0.63 5.44,-1.68 1.62,-1.34 0.67,-1 0.1,-0.95 -0.48,0.07 -0.85,0.43 -1.3,0.58 -1.84,0.86 -4.01,1.11 -5.95,0.45 -2.38,-0.78 -4.44,-2.38 -5.97,-4.3 -1.1,-1.4 -2.95,-5.06 -3.19,-5.06 z"
         style="fill:#000000;fill-rule:evenodd;stroke:#000000;stroke-width:2.4934907;stroke-miterlimit:4;stroke-dasharray:none;stroke-opacity:1"
         sodipodi:nodetypes="cccccccccc"
         id="path1093"
         inkscape:connector-curvature="0" />
      <path
         d="m 171.66,107.95 c 0,0 2.04,-1.36 2.45,0.14 0.41,1.49 -0.14,7.07 -1.09,8.02 -0.95,0.95 -1.77,0 -1.77,-0.81 0,-0.82 -0.13,-6.53 0.41,-7.35 z"
         style="fill:url(#linearGradient4939);fill-rule:evenodd;stroke:#000000;stroke-width:2.4934907;stroke-miterlimit:4;stroke-dasharray:none;stroke-opacity:1"
         id="path4314-6"
         inkscape:connector-curvature="0" />
      <path
         d="m 173.09,106.94 c -0.67,-0.04 -1.46,-0.02 -1.95,0.52 -0.31,0.48 -0.21,1.1 -0.33,1.64 -0.25,2.11 -0.53,4.27 -0.2,6.39 0.13,0.82 0.51,1.73 1.34,2.05 0.56,0.18 1.07,-0.27 1.37,-0.69 0.83,-1.28 1.18,-2.79 1.39,-4.27 0.16,-1.31 0.31,-2.63 0.18,-3.95 -0.03,-0.84 -0.76,-1.5 -1.55,-1.65 -0.08,-0.02 -0.17,-0.03 -0.25,-0.04 z m -0.21,1.28 c 0.6,-0.03 0.87,0.68 0.8,1.19 0.03,2.07 -0.24,4.18 -1,6.11 -0.16,0.44 -0.88,0.4 -0.85,-0.11 -0.32,-2.01 -0.01,-4.05 0.23,-6.05 0.07,-0.32 0,-0.7 0.17,-0.99 0.16,-0.17 0.43,-0.21 0.65,-0.15 z"
         style="fill:#000000;fill-rule:evenodd;stroke:#000000;stroke-width:2.4934907;stroke-miterlimit:4;stroke-dasharray:none;stroke-opacity:1"
         id="path1094"
         inkscape:connector-curvature="0" />
      <path
         d="m 164.79,97.312 c 1.17,-0.419 3.85,2.848 3.76,3.938 -1.84,1.42 -3.68,-2.766 -3.76,-3.938 z"
         style="fill:#4a0000;fill-rule:evenodd;stroke:#000000;stroke-width:2.4934907;stroke-miterlimit:4;stroke-dasharray:none;stroke-opacity:1"
         sodipodi:nodetypes="ccc"
         id="path5587"
         inkscape:connector-curvature="0" />
      <path
         d="m 164.62,96.594 c -0.4,0.036 -0.67,0.535 -0.48,0.894 0.46,1.37 0.98,2.762 1.91,3.892 0.56,0.67 1.37,1.19 2.26,1.16 0.35,0.02 0.69,-0.21 0.73,-0.56 0.17,-1.12 -0.29,-2.232 -0.92,-3.138 -0.65,-0.912 -1.46,-1.79 -2.55,-2.159 -0.3,-0.099 -0.63,-0.146 -0.95,-0.089 z m 0.39,0.819 c 1.06,0.339 2.63,2.032 2.87,3.077 0.04,0.14 0.12,1.11 -0.1,0.98 -0.3,-0.16 -1.01,-0.45 -1.22,-0.71 -0.46,-0.63 -1.28,-2.631 -1.55,-3.347 z"
         style="fill:#000000;fill-rule:evenodd;stroke:#000000;stroke-width:2.4934907;stroke-miterlimit:4;stroke-dasharray:none;stroke-opacity:1"
         sodipodi:nodetypes="ccccccccccccc"
         id="path1095"
         inkscape:connector-curvature="0" />
      <path
         d="m 175.59,101.75 c 0,-3.517 2.76,-3.182 3.76,-3.182 0,1.592 -1,2.342 -3.76,3.182 z"
         style="fill:#4a0000;fill-rule:evenodd;stroke:#000000;stroke-width:2.4934907;stroke-miterlimit:4;stroke-dasharray:none;stroke-opacity:1"
         sodipodi:nodetypes="ccc"
         id="path5588"
         inkscape:connector-curvature="0" />
      <path
         d="m 178.09,98.062 c -0.99,0.161 -1.97,0.658 -2.55,1.504 -0.41,0.574 -0.62,1.294 -0.56,1.994 0.03,0.35 0.39,0.59 0.73,0.53 1.51,-0.08 2.94,-0.9 3.81,-2.118 0.25,-0.355 0.48,-0.738 0.61,-1.154 0.07,-0.343 -0.2,-0.704 -0.55,-0.733 -0.49,-0.099 -1,-0.104 -1.49,-0.023 z m 1.01,0.967 c -0.44,0.48 -1.02,2.051 -3.48,2.251 0.05,-0.17 0.52,-1.14 0.63,-1.28 0.21,-0.214 0.79,-0.849 1.1,-0.906 0.19,-0.033 2.48,-0.688 1.75,-0.065 z"
         style="fill:#000000;fill-rule:evenodd;stroke:#000000;stroke-width:2.4934907;stroke-miterlimit:4;stroke-dasharray:none;stroke-opacity:1"
         sodipodi:nodetypes="ccccccccccccc"
         id="path1096"
         inkscape:connector-curvature="0" />
      <path
         d="m 144.46,110.13 c 0,0 2.72,1.22 2.85,1.77 0.14,0.54 -2.31,6.66 -3.13,8.02 -0.81,1.36 -2.85,4.63 -3.94,3.95 -1.09,-0.68 -2.04,-1.5 -1.63,-2.18 0.41,-0.68 4.35,-2.99 4.62,-3.95 0.27,-0.95 1.23,-6.93 1.23,-7.61 z"
         style="fill:url(#linearGradient4944);fill-rule:evenodd;stroke:#000000;stroke-width:2.4934907;stroke-miterlimit:4;stroke-dasharray:none;stroke-opacity:1"
         id="path4940"
         inkscape:connector-curvature="0" />
      <path
         d="m 151.67,114.62 c 0,0 3.4,0.68 2.17,2.04 -1.22,1.36 -5.98,3.4 -6.39,4.62 -0.41,1.23 -0.14,3.67 -1.77,3.81 -1.63,0.14 -3.54,0.54 -3.94,-0.41 -0.41,-0.95 3.53,-5.03 4.08,-5.03 0.54,0 2.99,-0.55 3.53,-1.23 0.55,-0.68 1.64,-3.53 2.32,-3.8 z"
         style="fill:url(#linearGradient4949);fill-rule:evenodd;stroke:#000000;stroke-width:2.4934907;stroke-miterlimit:4;stroke-dasharray:none;stroke-opacity:1"
         id="path4945"
         inkscape:connector-curvature="0" />
      <path
         d="m 138.83,122.01 c 0,0 3.1,-2.76 3.77,-3.68 0.67,-0.92 1.34,-0.84 1.84,-0.42 0.5,0.42 -1.09,3.35 0.25,2.43 1.34,-0.92 2.6,-1.59 3.1,-0.84 0.5,0.75 -0.5,1.59 -0.67,2.76 -0.67,1.09 -0.5,2.43 -1.01,2.85 -2.26,0.25 -4.52,0.34 -4.69,-0.59 -0.16,-0.92 -2.17,-0.25 -2.59,-2.51 z"
         style="fill:url(#linearGradient5606);fill-rule:evenodd;stroke:#000000;stroke-width:2.4934907;stroke-miterlimit:4;stroke-dasharray:none;stroke-opacity:1"
         sodipodi:nodetypes="ccccccccc"
         id="path5602"
         inkscape:connector-curvature="0" />
      <path
         d="m 144.25,109.31 c -0.54,0.14 -0.49,0.8 -0.51,1.23 -0.15,2.01 -0.24,4.03 -0.64,6.01 -0.04,0.56 -0.55,0.85 -0.92,1.18 -1.14,0.94 -2.34,1.81 -3.37,2.86 -0.43,0.45 -0.9,1.04 -0.68,1.7 0.28,0.86 0.73,1.82 1.66,2.11 0.88,0.3 1.84,-0.09 2.46,-0.72 0.97,-0.9 1.75,-1.99 2.43,-3.11 0.6,-1.09 0.98,-2.27 1.46,-3.41 0.62,-1.62 1.23,-3.27 1.68,-4.95 0.22,-0.54 -0.2,-0.98 -0.59,-1.29 -0.8,-0.77 -1.77,-1.52 -2.92,-1.62 -0.02,0.01 -0.04,0.01 -0.06,0.01 z m 0.72,1.66 c 0.56,0.29 1.1,0.65 1.56,1.09 -0.48,1.92 -0.74,3.84 -1.44,5.68 -0.4,0.99 -1.25,1.92 -1.86,2.8 -0.58,0.86 -1.2,1.71 -2.01,2.38 -0.4,0.36 -1.16,0.53 -1.45,-0.06 -0.2,-0.4 -0.65,-0.95 -0.15,-1.33 1.3,-1.3 2.83,-2.34 4.2,-3.56 0.53,-0.61 0.56,-1.47 0.71,-2.23 0.21,-1.51 0.31,-3.03 0.43,-4.55 0,-0.07 0,-0.15 0.01,-0.22 z"
         style="fill:#000000;fill-rule:evenodd;stroke:#000000;stroke-width:2.4934907;stroke-miterlimit:4;stroke-dasharray:none;stroke-opacity:1"
         sodipodi:nodetypes="ccccccccccccccccccccccccc"
         id="path1098"
         inkscape:connector-curvature="0" />
      <path
         d="m 151.44,113.94 c -0.49,0.16 -0.56,0.72 -0.69,1.14 -0.53,1.22 -1.21,2.47 -2.37,3.2 -0.5,0.32 -1.09,0.5 -1.69,0.48 -0.47,0.01 -0.95,0.1 -1.31,0.41 -0.78,0.55 -1.44,1.25 -2.19,1.85 -0.76,0.65 -1.59,1.27 -2.15,2.11 -0.47,0.88 0.04,2.08 0.97,2.41 1.21,0.53 2.6,0.46 3.86,0.11 0.65,-0.2 1.27,-0.75 1.26,-1.47 0,-0.55 0.09,-1.15 0.51,-1.54 1.25,-1.51 2.8,-2.72 4.35,-3.9 0.61,-0.44 1.25,-0.82 1.89,-1.21 0.44,-0.54 0.27,-1.32 -0.01,-1.89 -0.46,-0.89 -1.36,-1.61 -2.37,-1.7 z m 0.4,1.5 c 0.48,0.13 0.91,0.55 0.97,1.05 0.03,0.37 -0.36,0.52 -0.62,0.68 -1.99,1.24 -3.76,2.8 -5.38,4.48 -0.56,0.64 -1,1.47 -0.91,2.34 -0.04,0.42 -0.53,0.54 -0.88,0.57 -0.89,0.14 -1.88,0.23 -2.67,-0.29 -0.34,-0.19 -0.21,-0.69 0.04,-0.9 1.18,-1.07 2.39,-2.11 3.62,-3.12 0.57,-0.39 1.31,-0.11 1.93,-0.39 1.3,-0.39 2.35,-1.36 3.04,-2.51 0.37,-0.6 0.65,-1.25 0.86,-1.91 z"
         style="fill:#000000;fill-rule:evenodd;stroke:#000000;stroke-width:2.4934907;stroke-miterlimit:4;stroke-dasharray:none;stroke-opacity:1"
         id="path1099"
         inkscape:connector-curvature="0" />
    </g>
  </g>
</svg>
